<svg width="272" height="62" viewBox="0 0 272 62" fill="none" xmlns="http://www.w3.org/2000/svg">
<g clip-path="url(#clip0_8_19)">
<path d="M48.5652 20.3423C48.5385 18.9023 48.3519 18.1823 48.0052 18.1823C47.8719 18.1823 47.5385 18.3023 47.0052 18.5423C46.0185 18.9956 45.3785 20.1156 45.0852 21.9023C45.0319 22.4356 45.0052 22.7956 45.0052 22.9823C45.0052 24.5823 45.5252 25.3823 46.5652 25.3823C47.0185 25.3823 47.4319 25.1823 47.8052 24.7823C48.2052 24.3556 48.4452 23.8623 48.5252 23.3023C48.5785 22.929 48.6052 22.4223 48.6052 21.7823C48.6052 21.6223 48.5919 21.3823 48.5652 21.0623C48.5652 20.7423 48.5652 20.5023 48.5652 20.3423ZM47.0452 13.6223C47.5785 13.569 47.9652 13.5423 48.2052 13.5423C49.2985 13.5423 50.2985 13.729 51.2052 14.1023C52.1119 14.4756 52.7252 14.969 53.0452 15.5823C53.3385 16.169 53.4852 17.8623 53.4852 20.6623C53.4852 21.329 53.4585 23.049 53.4052 25.8223C53.3252 28.649 53.2452 30.4756 53.1652 31.3023C53.1119 32.1023 52.9785 32.769 52.7652 33.3023C52.4985 33.9956 52.0719 34.689 51.4852 35.3823C50.9252 36.049 50.3652 36.529 49.8052 36.8223C48.8452 37.2756 47.6852 37.5023 46.3252 37.5023C45.0452 37.5023 44.0052 37.3023 43.2052 36.9023C42.4052 36.4756 42.0052 35.7823 42.0052 34.8223C42.0052 34.4223 42.0985 34.049 42.2852 33.7023C42.6319 33.0356 43.3785 32.7023 44.5252 32.7023C44.9252 32.7023 45.2452 32.7156 45.4852 32.7423C46.0719 32.7956 46.4452 32.8223 46.6052 32.8223C46.9785 32.8223 47.2985 32.769 47.5652 32.6623C47.8052 32.529 48.0319 32.2356 48.2452 31.7823C48.4852 31.3023 48.6052 30.8756 48.6052 30.5023C48.6052 30.3156 48.5519 30.1956 48.4452 30.1423C48.3652 30.089 48.0852 30.0623 47.6052 30.0623H46.8052C45.9519 30.0623 45.3519 30.0356 45.0052 29.9823C44.6852 29.9023 44.2585 29.729 43.7252 29.4623C41.4585 28.3156 40.3252 26.1823 40.3252 23.0623C40.3785 18.8223 41.8319 15.9423 44.6852 14.4223C45.4585 13.9956 46.2452 13.729 47.0452 13.6223ZM66.9499 20.8623C66.5232 20.4356 66.0965 20.2223 65.6699 20.2223L64.4299 20.8223C64.0299 21.2223 63.8299 21.529 63.8299 21.7423C63.8299 22.089 64.4432 22.2623 65.6699 22.2623H66.3099C67.1099 22.2356 67.5099 22.0623 67.5099 21.7423C67.5099 21.529 67.3232 21.2356 66.9499 20.8623ZM63.7899 15.7423C64.3232 15.5556 64.9099 15.4623 65.5499 15.4623C67.3365 15.4623 68.8699 16.1023 70.1499 17.3823C71.4832 18.7156 72.1899 20.289 72.2699 22.1023C72.2699 22.209 72.2699 22.3556 72.2699 22.5423C72.2965 22.729 72.3099 22.849 72.3099 22.9023C72.3099 23.409 72.0832 23.9956 71.6299 24.6623C71.2032 25.3556 70.5765 25.9156 69.7499 26.3423C69.0032 26.7156 68.1632 26.9023 67.2299 26.9023H65.9899C65.6432 26.9023 65.2032 26.9023 64.6699 26.9023C64.1632 26.8756 63.7632 26.8623 63.4699 26.8623C63.1765 26.8356 62.9765 26.8223 62.8699 26.8223L62.2699 26.7423V28.1423C62.2699 28.9423 62.3765 29.5556 62.5899 29.9823C62.8299 30.3823 63.2832 30.769 63.9499 31.1423C64.4299 31.4356 64.9099 31.5823 65.3899 31.5823C65.9765 31.5823 66.6299 31.3556 67.3499 30.9023C68.1499 30.3956 68.7632 30.1423 69.1899 30.1423C69.6165 30.1423 70.0699 30.3823 70.5499 30.8623C71.0299 31.3423 71.2699 31.8623 71.2699 32.4223C71.2699 33.0356 70.9899 33.6356 70.4299 34.2223C69.3099 35.449 67.8832 36.1423 66.1499 36.3023C66.0165 36.329 65.8032 36.3423 65.5099 36.3423C63.9632 36.3423 62.4432 35.849 60.9499 34.8623C59.4832 33.8756 58.4965 32.6756 57.9899 31.2623C57.6965 30.5423 57.5499 29.529 57.5499 28.2223C57.5499 25.1023 58.2299 22.209 59.5899 19.5423C60.4965 17.6756 61.8965 16.409 63.7899 15.7423ZM81.0961 13.3823C81.3628 13.1156 81.5895 12.9423 81.7761 12.8623C81.9628 12.7823 82.2828 12.7423 82.7361 12.7423C83.4295 12.7423 83.9895 12.9556 84.4161 13.3823C84.7895 13.7556 85.0028 14.089 85.0561 14.3823C85.1095 14.649 85.1495 15.5556 85.1761 17.1023V19.5023L86.7361 19.4223H87.2161C89.2428 19.4223 90.2561 20.209 90.2561 21.7823C90.2561 23.3556 89.0828 24.1423 86.7361 24.1423C86.0695 24.1423 85.6295 24.1956 85.4161 24.3023C85.2295 24.3823 85.1361 24.5956 85.1361 24.9423C85.1361 25.1823 85.1495 25.3823 85.1761 25.5423C85.2828 26.209 85.4295 26.8623 85.6161 27.5023C85.8295 28.1956 86.1095 28.5423 86.4561 28.5423C86.6961 28.5423 86.9895 28.289 87.3361 27.7823C87.9228 26.8756 88.6428 26.4223 89.4961 26.4223C89.8428 26.4223 90.2295 26.529 90.6561 26.7423C91.3495 27.089 91.6961 27.7556 91.6961 28.7423C91.6961 29.6223 91.3095 30.489 90.5361 31.3423C89.7895 32.1956 88.8961 32.769 87.8561 33.0623C87.5095 33.169 87.0295 33.2223 86.4161 33.2223C85.3228 33.2223 84.4828 33.0756 83.8961 32.7823C83.4695 32.569 83.0428 32.2356 82.6161 31.7823C82.1895 31.329 81.8695 30.889 81.6561 30.4623C81.4695 30.1156 81.2428 29.3956 80.9761 28.3023C80.7095 27.209 80.5228 26.3023 80.4161 25.5823C80.2561 25.1556 80.1228 24.929 80.0161 24.9023C79.8295 24.9023 79.6561 24.9156 79.4961 24.9423C79.3895 24.969 79.2295 24.9823 79.0161 24.9823C78.3228 24.9823 77.7361 24.7556 77.2561 24.3023C76.8028 23.849 76.5761 23.289 76.5761 22.6223C76.5761 21.129 77.4961 20.2623 79.3361 20.0223L80.4161 19.9023V17.4223C80.4428 15.689 80.4695 14.6756 80.4961 14.3823C80.5495 14.0623 80.7495 13.729 81.0961 13.3823ZM117.309 19.3823C116.909 19.1423 116.096 19.0223 114.869 19.0223C114.016 19.0223 113.416 19.1023 113.069 19.2623C112.323 19.609 111.736 20.3156 111.309 21.3823C110.883 22.449 110.669 23.6223 110.669 24.9023C110.669 27.0356 111.176 28.609 112.189 29.6223C112.536 29.969 112.869 30.1423 113.189 30.1423C113.429 30.1423 113.616 30.129 113.749 30.1023C114.283 30.049 114.829 29.8356 115.389 29.4623C115.976 29.089 116.416 28.6623 116.709 28.1823C117.403 27.1156 117.749 25.1023 117.749 22.1423C117.749 20.9156 117.723 20.1823 117.669 19.9423C117.643 19.6756 117.523 19.489 117.309 19.3823ZM119.469 14.3023C119.923 13.929 120.389 13.7423 120.869 13.7423C121.376 13.7423 121.869 13.9556 122.349 14.3823L123.029 14.9823L123.149 23.2623C123.229 28.8356 123.349 31.7823 123.509 32.1023C123.696 32.4756 123.789 32.8623 123.789 33.2623C123.789 33.849 123.549 34.3823 123.069 34.8623C122.616 35.3156 122.109 35.5423 121.549 35.5423C120.456 35.5423 119.683 34.9823 119.229 33.8623C119.016 33.3556 118.896 33.1023 118.869 33.1023C118.816 33.1023 118.203 33.369 117.029 33.9023C116.176 34.329 115.576 34.5956 115.229 34.7023C114.883 34.7823 114.323 34.8223 113.549 34.8223C112.403 34.8223 111.443 34.6356 110.669 34.2623C109.229 33.569 108.083 32.369 107.229 30.6623C106.376 28.929 105.949 26.969 105.949 24.7823C105.949 22.6756 106.363 20.7556 107.189 19.0223C108.763 15.8223 111.296 14.2223 114.789 14.2223C115.643 14.2223 116.483 14.3156 117.309 14.5023L118.869 14.8223L119.469 14.3023ZM142.502 13.3823C142.769 13.1156 142.996 12.9423 143.182 12.8623C143.369 12.7823 143.689 12.7423 144.142 12.7423C144.836 12.7423 145.396 12.9556 145.822 13.3823C146.196 13.7556 146.409 14.089 146.462 14.3823C146.516 14.649 146.556 15.5556 146.582 17.1023V19.5023L148.142 19.4223H148.622C150.649 19.4223 151.662 20.209 151.662 21.7823C151.662 23.3556 150.489 24.1423 148.142 24.1423C147.476 24.1423 147.036 24.1956 146.822 24.3023C146.636 24.3823 146.542 24.5956 146.542 24.9423C146.542 25.1823 146.556 25.3823 146.582 25.5423C146.689 26.209 146.836 26.8623 147.022 27.5023C147.236 28.1956 147.516 28.5423 147.862 28.5423C148.102 28.5423 148.396 28.289 148.742 27.7823C149.329 26.8756 150.049 26.4223 150.902 26.4223C151.249 26.4223 151.636 26.529 152.062 26.7423C152.756 27.089 153.102 27.7556 153.102 28.7423C153.102 29.6223 152.716 30.489 151.942 31.3423C151.196 32.1956 150.302 32.769 149.262 33.0623C148.916 33.169 148.436 33.2223 147.822 33.2223C146.729 33.2223 145.889 33.0756 145.302 32.7823C144.876 32.569 144.449 32.2356 144.022 31.7823C143.596 31.329 143.276 30.889 143.062 30.4623C142.876 30.1156 142.649 29.3956 142.382 28.3023C142.116 27.209 141.929 26.3023 141.822 25.5823C141.662 25.1556 141.529 24.929 141.422 24.9023C141.236 24.9023 141.062 24.9156 140.902 24.9423C140.796 24.969 140.636 24.9823 140.422 24.9823C139.729 24.9823 139.142 24.7556 138.662 24.3023C138.209 23.849 137.982 23.289 137.982 22.6223C137.982 21.129 138.902 20.2623 140.742 20.0223L141.822 19.9023V17.4223C141.849 15.689 141.876 14.6756 141.902 14.3823C141.956 14.0623 142.156 13.729 142.502 13.3823ZM166.756 22.1823C166.169 21.0623 165.689 20.5023 165.316 20.5023C165.262 20.5023 165.209 20.529 165.156 20.5823C165.049 20.689 164.996 20.9823 164.996 21.4623C164.996 21.9156 164.836 22.3423 164.516 22.7423C164.196 23.1156 163.809 23.3556 163.356 23.4623C162.982 23.5423 162.702 23.729 162.516 24.0223C162.356 24.3156 162.209 24.9023 162.076 25.7823C162.022 26.2623 161.996 26.609 161.996 26.8223C161.996 28.609 162.689 29.5023 164.076 29.5023H164.396C165.542 29.3156 166.329 28.9156 166.756 28.3023C167.182 27.689 167.396 26.6756 167.396 25.2623C167.396 24.4356 167.356 23.849 167.276 23.5023C167.222 23.1556 167.049 22.7156 166.756 22.1823ZM163.396 15.9023C163.716 15.7956 164.169 15.7423 164.756 15.7423C165.929 15.7423 166.809 15.9023 167.396 16.2223C168.836 16.969 169.996 18.1823 170.876 19.8623C171.756 21.5423 172.196 23.3556 172.196 25.3023C172.196 25.7556 172.142 26.3823 172.036 27.1823C171.449 30.7823 169.489 33.0623 166.156 34.0223C165.569 34.209 164.929 34.3023 164.236 34.3023C162.929 34.3023 161.716 33.9556 160.596 33.2623C159.476 32.569 158.622 31.6223 158.036 30.4223C157.636 29.5956 157.409 28.569 157.356 27.3423C157.356 27.2356 157.342 27.1023 157.316 26.9423C157.316 26.7556 157.316 26.6223 157.316 26.5423C157.316 23.7956 158.036 21.6356 159.476 20.0623C160.009 19.4756 160.396 18.9156 160.636 18.3823C160.822 17.9556 161.209 17.4756 161.796 16.9423C162.409 16.409 162.942 16.0623 163.396 15.9023ZM187.7 19.3823C187.3 19.1423 186.487 19.0223 185.26 19.0223C184.407 19.0223 183.807 19.1023 183.46 19.2623C182.713 19.609 182.127 20.3156 181.7 21.3823C181.273 22.449 181.06 23.6223 181.06 24.9023C181.06 27.0356 181.567 28.609 182.58 29.6223C182.927 29.969 183.26 30.1423 183.58 30.1423C183.82 30.1423 184.007 30.129 184.14 30.1023C184.673 30.049 185.22 29.8356 185.78 29.4623C186.367 29.089 186.807 28.6623 187.1 28.1823C187.793 27.1156 188.14 25.1023 188.14 22.1423C188.14 20.9156 188.113 20.1823 188.06 19.9423C188.033 19.6756 187.913 19.489 187.7 19.3823ZM189.86 14.3023C190.313 13.929 190.78 13.7423 191.26 13.7423C191.767 13.7423 192.26 13.9556 192.74 14.3823L193.42 14.9823L193.54 23.2623C193.62 28.8356 193.74 31.7823 193.9 32.1023C194.087 32.4756 194.18 32.8623 194.18 33.2623C194.18 33.849 193.94 34.3823 193.46 34.8623C193.007 35.3156 192.5 35.5423 191.94 35.5423C190.847 35.5423 190.073 34.9823 189.62 33.8623C189.407 33.3556 189.287 33.1023 189.26 33.1023C189.207 33.1023 188.593 33.369 187.42 33.9023C186.567 34.329 185.967 34.5956 185.62 34.7023C185.273 34.7823 184.713 34.8223 183.94 34.8223C182.793 34.8223 181.833 34.6356 181.06 34.2623C179.62 33.569 178.473 32.369 177.62 30.6623C176.767 28.929 176.34 26.969 176.34 24.7823C176.34 22.6756 176.753 20.7556 177.58 19.0223C179.153 15.8223 181.687 14.2223 185.18 14.2223C186.033 14.2223 186.873 14.3156 187.7 14.5023L189.26 14.8223L189.86 14.3023ZM205.453 25.3023C204.866 25.089 204.44 24.9823 204.173 24.9823C203.906 24.9823 203.706 25.089 203.573 25.3023C203.44 25.5156 203.293 25.9023 203.133 26.4623C203 27.0756 202.933 27.5823 202.933 27.9823C202.933 29.449 203.386 30.289 204.293 30.5023C204.346 30.529 204.426 30.5423 204.533 30.5423C205.2 30.5423 205.76 29.6356 206.213 27.8223C206.453 26.809 206.573 26.1823 206.573 25.9423C206.573 25.7823 206.2 25.569 205.453 25.3023ZM208.333 11.2223C208.786 10.849 209.28 10.6623 209.813 10.6623C210.746 10.6623 211.413 11.0756 211.813 11.9023C211.92 12.089 211.973 12.8756 211.973 14.2623C211.973 14.6356 211.946 16.2623 211.893 19.1423C211.866 19.9956 211.853 21.2223 211.853 22.8223C211.853 27.9156 212.053 31.4356 212.453 33.3823C212.506 33.7556 212.533 34.009 212.533 34.1423C212.533 34.8623 212.32 35.449 211.893 35.9023C211.466 36.329 210.96 36.5423 210.373 36.5423C209.44 36.5423 208.746 36.009 208.293 34.9423C208.08 34.5156 207.96 34.3023 207.933 34.3023C207.826 34.3023 207.48 34.449 206.893 34.7423C206.253 35.0623 205.493 35.2223 204.613 35.2223C203.68 35.2223 202.866 35.049 202.173 34.7023C200.946 34.1156 199.986 33.2623 199.293 32.1423C198.626 30.9956 198.293 29.6756 198.293 28.1823C198.293 26.0756 198.746 24.3023 199.653 22.8623C200.56 21.4223 201.76 20.5823 203.253 20.3423C203.36 20.3156 203.56 20.3023 203.853 20.3023C204.946 20.3023 205.88 20.449 206.653 20.7423H206.733C206.893 20.7423 207.026 19.5156 207.133 17.0623C207.213 14.9023 207.32 13.4756 207.453 12.7823C207.613 12.089 207.906 11.569 208.333 11.2223ZM220.252 14.9823C221.132 14.7956 222.012 14.7023 222.892 14.7023H223.292C224.359 14.729 225.172 14.929 225.732 15.3023C226.959 16.1023 227.639 17.4356 227.772 19.3023C227.852 20.3423 227.999 20.8623 228.212 20.8623C228.612 20.8623 229.066 20.969 229.572 21.1823C230.079 21.369 230.466 21.5956 230.732 21.8623C231.159 22.289 231.372 22.769 231.372 23.3023C231.372 23.809 231.159 24.3156 230.732 24.8223C230.439 25.169 230.172 25.369 229.932 25.4223C229.692 25.4756 229.039 25.529 227.972 25.5823L225.852 25.6623L224.812 27.3423C224.092 28.489 223.732 29.1423 223.732 29.3023C223.732 29.4623 223.959 29.5423 224.412 29.5423C224.946 29.5423 225.639 29.289 226.492 28.7823C227.346 28.249 228.066 27.9823 228.652 27.9823C229.186 27.9823 229.652 28.1823 230.052 28.5823C230.586 29.1156 230.852 29.649 230.852 30.1823C230.852 31.4356 229.772 32.569 227.612 33.5823C226.999 33.9023 226.506 34.089 226.132 34.1423C225.759 34.1956 224.932 34.2223 223.652 34.2223C222.479 34.2223 221.692 34.1956 221.292 34.1423C220.919 34.089 220.506 33.9423 220.052 33.7023C219.332 33.3556 218.839 32.9823 218.572 32.5823C218.306 32.1556 218.172 31.569 218.172 30.8223C218.172 30.0223 218.439 29.1023 218.972 28.0623C219.479 26.9956 219.732 26.449 219.732 26.4223C219.732 26.369 219.452 26.289 218.892 26.1823C217.852 26.049 217.159 25.4623 216.812 24.4223C216.732 24.1823 216.692 23.9823 216.692 23.8223C216.692 23.609 216.786 23.3156 216.972 22.9423C217.212 22.4356 217.599 22.0623 218.132 21.8223C218.666 21.5823 219.519 21.3823 220.692 21.2223C221.519 21.089 222.052 20.9823 222.292 20.9023C222.532 20.8223 222.706 20.6756 222.812 20.4623C222.972 20.1423 223.052 19.9023 223.052 19.7423C223.052 19.5556 222.932 19.4623 222.692 19.4623C222.372 19.4623 221.892 19.5556 221.252 19.7423C220.719 19.8756 220.252 19.9423 219.852 19.9423C219.612 19.9423 219.452 19.929 219.372 19.9023C218.786 19.7956 218.292 19.5023 217.892 19.0223C217.492 18.5423 217.292 18.0223 217.292 17.4623C217.292 17.1156 217.372 16.809 217.532 16.5423C217.746 16.1156 218.026 15.809 218.372 15.6223C218.719 15.409 219.346 15.1956 220.252 14.9823Z" fill="white"/>
<path d="M18.3142 59.3359C29.733 59.2663 41.0617 61.324 52.5106 61.324C64.3998 61.324 75.8886 62.666 87.7978 61.5825C93.0919 61.1053 98.416 60.7674 103.7 60.1809C109.354 59.5546 114.709 59.9025 120.373 59.7037C131.962 59.3061 143.601 57.805 155.16 56.8805C166.979 55.8865 178.788 54.6538 190.647 54.4252C195.721 54.3159 200.655 54.9421 205.659 55.3199C211.663 55.7672 217.618 54.7532 223.593 54.3258C228.897 53.9978 233.881 53.0534 239.225 53.7095C243.698 54.2661 248.102 55.2702 252.615 55.5883C258.62 56.0058 265.625 55.9461 268.447 49.8127C269.835 46.6907 270.417 43.2738 270.139 39.872C269.928 34.6433 272.55 29.7524 271.9 24.5435C270.849 16.2132 263.153 10.5669 256.068 7.38592C247.149 3.27938 237.552 0.820375 227.746 0.129223C216.617 -0.556684 205.479 0.66602 194.35 0.596435C182.821 0.516909 171.412 0.596435 159.903 1.06365C148.705 1.5408 137.356 3.73769 126.177 3.49911C114.178 3.32018 102.299 0.994062 90.2897 0.725664C85.1458 0.606376 80.0018 0.725664 74.8478 0.725664C70.0541 0.626257 65.1804 0.0496977 60.4267 1.07359C54.8824 2.25653 49.8885 4.97033 44.2542 5.9644C37.8966 7.0347 31.4667 7.6262 25.0193 7.73384C17.8538 7.92271 6.49504 8.13147 3.0724 15.6864C-0.930691 24.633 -0.330228 34.7427 1.14091 44.1764C2.2918 51.7412 10.5782 58.65 18.3142 58.3418C20.2457 58.2722 20.2557 55.29 18.3142 55.3596C13.3203 55.5485 8.00621 51.8009 5.48426 47.7152C3.37263 44.1167 3.56278 38.6394 3.00235 34.5339C2.44191 30.4284 3.38264 24.3447 4.54354 20.3983C6.19481 14.752 9.5474 12.7141 15.2418 11.5908C23.8584 9.89097 32.8554 10.7459 41.5621 9.44364C50.6892 8.07182 58.9155 3.29036 68.2227 3.47923C77.8401 3.65816 87.5276 3.40965 97.125 4.05579C107.083 4.69199 117.09 6.5012 127.098 6.56084C137.106 6.62048 147.014 4.68205 156.951 4.2546C166.889 3.82715 176.807 3.40965 186.774 3.55876C206.489 3.8371 226.925 0.576553 245.99 6.78948C254.927 9.71204 268.707 14.8116 269.008 26.1738C269.128 30.5875 267.006 34.6234 267.086 39.0967C267.166 43.57 267.226 49.8326 262.243 52.0196C255.667 54.8725 246.08 51.612 239.435 50.7869C230.338 49.6636 220.981 51.781 211.894 52.4072C207.49 52.6955 203.197 52.0295 198.824 51.6617C193.799 51.3237 188.757 51.3237 183.732 51.6617C173.194 52.1885 162.716 53.292 152.188 54.1071C141.079 54.9819 129.73 56.7911 118.582 56.7314C107.903 56.6718 97.5654 57.7255 86.8571 58.7196C75.2782 59.7136 64.0695 58.3816 52.5106 58.3716C40.9516 58.3617 29.733 56.3239 18.3142 56.3835C17.916 56.3835 17.5342 56.5406 17.2527 56.8202C16.9712 57.0999 16.813 57.4791 16.813 57.8746C16.813 58.2701 16.9712 58.6493 17.2527 58.929C17.5342 59.2086 17.916 59.3657 18.3142 59.3657V59.3359Z" fill="white"/>
</g>
<defs>
<clipPath id="clip0_8_19">
<rect width="272" height="62" fill="white"/>
</clipPath>
</defs>
</svg>
