<svg width="206" height="132" viewBox="0 0 206 132" fill="none" xmlns="http://www.w3.org/2000/svg">
<g clip-path="url(#clip0_7_77)">
<path d="M136.156 33.2549C136.181 42.4609 132.93 51.3981 126.941 58.5816C120.952 65.7652 112.587 70.7625 103.235 72.7433C94.9699 74.5326 87.3551 72.7433 79.9605 69.2899C75.9579 67.4237 71.9554 65.5286 69.0336 62.0175C64.961 57.0806 62.3508 51.178 61.4788 44.9331C59.9692 35.5231 61.5649 25.8949 66.0417 17.4018C70.7547 8.38829 78.6797 3.44382 88.696 1.25055C98.0619 -0.798422 107.288 -0.538693 116.073 3.61697C123.378 7.08002 129.512 11.861 133.184 19.0949C135.288 23.5343 136.305 28.3785 136.156 33.2549ZM132.003 32.5431C131.679 29.807 131.198 27.0902 130.562 24.4049C129.774 21.0183 127.96 17.9321 125.349 15.5356C123.197 13.4676 120.903 11.5394 118.485 9.76389C114.751 7.2965 110.521 5.60885 106.067 4.8098C101.948 4.0993 97.7355 4.0473 93.5991 4.65589C88.4765 5.20475 83.5464 6.84812 79.17 9.46568C72.0455 14.0927 67.9029 20.2011 68.3031 28.7337C68.4232 31.1194 68.4832 33.5435 68.6633 35.8811C68.9748 41.5733 70.9595 47.0637 74.3869 51.7149C76.9627 55.0199 79.9921 57.9743 83.3926 60.4976C85.8923 62.3419 88.7299 63.7189 91.7579 64.5571C95.6003 65.721 99.5228 66.6445 103.455 67.5199C104.622 67.7798 105.842 67.7231 106.978 67.3564C112.355 65.5234 117.213 62.5095 121.166 58.5544C128.011 51.4937 131.473 43.2304 132.003 32.5431Z" fill="white"/>
<path d="M100.844 15.2567C107.708 14.7661 112.671 18.9698 115.353 24.7993C116.931 28.2797 117.741 32.0365 117.734 35.833C117.723 39.316 116.808 42.7412 115.073 45.7989C112.18 51.2225 107.294 55.419 101.364 57.5732C95.3602 59.7569 89.2963 59.9493 83.4827 56.9384C81.9079 56.0182 80.4533 54.9202 79.1499 53.6677C78.9321 53.508 78.7539 53.3038 78.6281 53.0699C78.5023 52.8359 78.4321 52.5781 78.4225 52.3149C78.413 52.0517 78.4643 51.7897 78.5728 51.5479C78.6813 51.3061 78.8442 51.0904 79.0499 50.9165C79.2441 50.7323 79.4775 50.5907 79.734 50.5014C79.9906 50.4122 80.2641 50.3773 80.536 50.3992C80.8079 50.4212 81.0716 50.4994 81.309 50.6285C81.5465 50.7576 81.7521 50.9346 81.9117 51.1474C83.2032 52.4979 84.7712 53.577 86.5173 54.317C88.2634 55.057 90.1499 55.4418 92.0581 55.4473C95.6737 55.5947 99.2633 54.7968 102.445 53.1386C105.903 51.3713 108.811 48.7519 110.87 45.5488C113.336 41.6434 114.315 37.0365 113.642 32.5142C113.215 28.9712 111.835 25.5962 109.639 22.7215C108.728 21.4962 107.508 20.5136 106.094 19.8658C104.68 19.218 103.118 18.9262 101.554 19.0179C94.6897 19.0949 89.3964 21.6826 86.7447 27.1753C85.8072 28.9089 85.2732 30.8178 85.1799 32.7697C85.0866 34.7215 85.4362 36.6694 86.2044 38.4784C87.6953 41.8645 90.2069 44.2501 94.1194 44.7888C95.1446 44.8591 96.1726 44.6977 97.1213 44.3175C98.8062 43.6264 100.232 42.4579 101.208 40.9677C102.184 39.4776 102.664 37.7366 102.585 35.9773C102.245 32.7932 99.903 31.4849 96.8311 32.7547C96.3382 33.0412 95.7644 33.1724 95.1901 33.1299C94.8622 33.0551 94.5538 32.9167 94.2836 32.7232C94.0134 32.5296 93.7873 32.285 93.6191 32.0044C93.5349 31.6866 93.531 31.354 93.6075 31.0344C93.6841 30.7148 93.839 30.4174 94.0594 30.167C97.1313 27.6659 103.065 27.7525 105.236 32.4373C105.998 33.9833 106.34 35.6898 106.23 37.3973C106.12 39.1048 105.561 40.7576 104.606 42.2011C102.184 46.174 98.7623 48.7328 93.6691 48.2903C92.2537 48.2076 90.8707 47.8485 89.6045 47.2349C88.3383 46.6213 87.2154 45.7661 86.3045 44.7215C84.9692 43.1935 83.7772 41.555 82.7422 39.8251C81.2513 37.3048 81.2513 34.4862 81.5114 31.6677C81.9621 27.3929 83.9427 23.4011 87.115 20.3743C89.5465 17.9213 92.8386 16.7381 96.2107 15.9012C97.742 15.6071 99.2885 15.3919 100.844 15.2567Z" fill="white"/>
<path d="M7.47432 93.1835C7.77092 92.8869 8.02303 92.6942 8.23065 92.6052C8.43827 92.5162 8.79419 92.4717 9.29841 92.4717C10.0696 92.4717 10.6924 92.709 11.167 93.1835C11.5822 93.5988 11.8195 93.9695 11.8788 94.2958C11.9382 94.5924 11.9826 95.6008 12.0123 97.3211V99.9905L13.7474 99.9015H14.2813C16.5355 99.9015 17.6625 100.777 17.6625 102.526C17.6625 104.276 16.3575 105.151 13.7474 105.151C13.0059 105.151 12.5165 105.211 12.2792 105.329C12.0716 105.418 11.9678 105.656 11.9678 106.041C11.9678 106.308 11.9826 106.531 12.0123 106.709C12.1309 107.45 12.2941 108.177 12.5017 108.889C12.739 109.66 13.0504 110.045 13.436 110.045C13.7029 110.045 14.0292 109.763 14.4148 109.2C15.0673 108.192 15.8681 107.687 16.8172 107.687C17.2028 107.687 17.6329 107.806 18.1074 108.043C18.8786 108.429 19.2642 109.17 19.2642 110.268C19.2642 111.246 18.8341 112.21 17.974 113.16C17.1435 114.109 16.1499 114.746 14.9931 115.073C14.6076 115.191 14.0737 115.251 13.3915 115.251C12.1754 115.251 11.2411 115.087 10.5886 114.761C10.1141 114.524 9.6395 114.153 9.16494 113.649C8.69038 113.145 8.33446 112.655 8.09718 112.181C7.88956 111.795 7.63745 110.994 7.34085 109.778C7.04425 108.562 6.83663 107.554 6.71799 106.753C6.54003 106.278 6.39173 106.026 6.27309 105.997C6.06547 105.997 5.87268 106.011 5.69472 106.041C5.57608 106.071 5.39812 106.086 5.16084 106.086C4.38968 106.086 3.73716 105.834 3.20328 105.329C2.69906 104.825 2.44695 104.202 2.44695 103.461C2.44695 101.8 3.47022 100.836 5.51676 100.569L6.71799 100.435V97.677C6.74765 95.7491 6.77731 94.6221 6.80697 94.2958C6.86629 93.9399 7.08874 93.5691 7.47432 93.1835ZM34.4499 102.971C33.7973 101.726 33.2635 101.103 32.8482 101.103C32.7889 101.103 32.7296 101.132 32.6703 101.192C32.5516 101.31 32.4923 101.637 32.4923 102.171C32.4923 102.675 32.3143 103.149 31.9584 103.594C31.6025 104.009 31.1724 104.276 30.6682 104.395C30.253 104.484 29.9415 104.692 29.7339 105.018C29.556 105.344 29.3928 105.997 29.2445 106.975C29.1852 107.509 29.1556 107.895 29.1556 108.132C29.1556 110.119 29.9267 111.113 31.469 111.113H31.825C33.1003 110.905 33.9753 110.46 34.4499 109.778C34.9244 109.096 35.1617 107.969 35.1617 106.397C35.1617 105.478 35.1172 104.825 35.0282 104.44C34.9689 104.054 34.7761 103.565 34.4499 102.971ZM30.7127 95.9864C31.0686 95.8678 31.5728 95.8085 32.2254 95.8085C33.5304 95.8085 34.5092 95.9864 35.1617 96.3423C36.7633 97.1728 38.0536 98.5223 39.0323 100.391C40.0111 102.26 40.5005 104.276 40.5005 106.442C40.5005 106.946 40.4412 107.643 40.3225 108.533C39.67 112.537 37.49 115.073 33.7825 116.14C33.13 116.348 32.4182 116.452 31.647 116.452C30.1937 116.452 28.8441 116.066 27.5984 115.295C26.3527 114.524 25.4036 113.471 24.751 112.136C24.3061 111.217 24.054 110.075 23.9947 108.711C23.9947 108.592 23.9799 108.444 23.9502 108.266C23.9502 108.058 23.9502 107.91 23.9502 107.821C23.9502 104.766 24.751 102.363 26.3527 100.613C26.9459 99.9609 27.376 99.338 27.6429 98.7448C27.8505 98.2702 28.2806 97.7364 28.9331 97.1432C29.6153 96.55 30.2085 96.1644 30.7127 95.9864ZM57.7452 99.857C57.3003 99.5901 56.3957 99.4566 55.0314 99.4566C54.0822 99.4566 53.4149 99.5456 53.0293 99.7236C52.1988 100.109 51.5463 100.895 51.0717 102.082C50.5972 103.268 50.3599 104.573 50.3599 105.997C50.3599 108.369 50.9234 110.119 52.0505 111.246C52.4361 111.632 52.8069 111.825 53.1628 111.825C53.4297 111.825 53.6373 111.81 53.7856 111.78C54.3788 111.721 54.9869 111.484 55.6097 111.069C56.2622 110.653 56.7516 110.179 57.0779 109.645C57.8491 108.458 58.2346 106.219 58.2346 102.927C58.2346 101.562 58.205 100.747 58.1457 100.48C58.116 100.183 57.9825 99.9757 57.7452 99.857ZM60.1477 94.2068C60.6519 93.7916 61.171 93.584 61.7049 93.584C62.2684 93.584 62.8171 93.8212 63.351 94.2958L64.1073 94.9631L64.2408 104.173C64.3298 110.372 64.4632 113.649 64.6412 114.005C64.8488 114.42 64.9526 114.85 64.9526 115.295C64.9526 115.948 64.6857 116.541 64.1518 117.075C63.6476 117.579 63.084 117.831 62.4612 117.831C61.2451 117.831 60.385 117.208 59.8808 115.962C59.6435 115.399 59.51 115.117 59.4804 115.117C59.421 115.117 58.7389 115.414 57.4338 116.007C56.4847 116.481 55.8173 116.778 55.4318 116.897C55.0462 116.986 54.4233 117.03 53.5632 117.03C52.2878 117.03 51.22 116.823 50.3599 116.407C48.7583 115.636 47.4829 114.301 46.5338 112.403C45.5846 110.475 45.1101 108.295 45.1101 105.863C45.1101 103.52 45.5698 101.385 46.4893 99.4566C48.2392 95.8974 51.0569 94.1178 54.9424 94.1178C55.8915 94.1178 56.8258 94.2216 57.7452 94.4293L59.4804 94.7852L60.1477 94.2068ZM77.4912 106.442C76.8386 106.204 76.3641 106.086 76.0675 106.086C75.7709 106.086 75.5484 106.204 75.4001 106.442C75.2518 106.679 75.0887 107.109 74.9107 107.732C74.7624 108.414 74.6883 108.977 74.6883 109.422C74.6883 111.054 75.1925 111.988 76.201 112.225C76.2603 112.255 76.3493 112.27 76.4679 112.27C77.2094 112.27 77.8323 111.261 78.3365 109.244C78.6034 108.117 78.7369 107.42 78.7369 107.153C78.7369 106.975 78.3216 106.738 77.4912 106.442ZM80.6944 90.7811C81.1987 90.3658 81.7474 90.1582 82.3406 90.1582C83.3787 90.1582 84.1202 90.618 84.5651 91.5374C84.6837 91.745 84.743 92.62 84.743 94.1623C84.743 94.5776 84.7134 96.3868 84.6541 99.5901C84.6244 100.539 84.6096 101.904 84.6096 103.683C84.6096 109.348 84.832 113.263 85.2769 115.429C85.3362 115.844 85.3659 116.126 85.3659 116.274C85.3659 117.075 85.1286 117.727 84.6541 118.231C84.1795 118.706 83.616 118.943 82.9634 118.943C81.9253 118.943 81.1542 118.35 80.65 117.164C80.4127 116.689 80.2792 116.452 80.2495 116.452C80.1309 116.452 79.7453 116.615 79.0928 116.941C78.381 117.297 77.5357 117.475 76.5569 117.475C75.5188 117.475 74.6141 117.282 73.843 116.897C72.4786 116.244 71.4109 115.295 70.6397 114.049C69.8982 112.774 69.5274 111.306 69.5274 109.645C69.5274 107.302 70.0317 105.329 71.0401 103.728C72.0485 102.126 73.3832 101.192 75.0442 100.925C75.1628 100.895 75.3853 100.88 75.7116 100.88C76.9276 100.88 77.9657 101.043 78.8259 101.37H78.9148C79.0928 101.37 79.2411 100.005 79.3597 97.2766C79.4487 94.8742 79.5674 93.2874 79.7157 92.5162C79.8936 91.745 80.2199 91.1667 80.6944 90.7811ZM93.9963 86.51C94.4412 86.3914 96.5618 86.3321 100.358 86.3321C104.125 86.3321 106.29 86.3914 106.854 86.51C107.032 86.5694 107.314 86.6287 107.699 86.688C108.114 86.7473 108.381 86.7918 108.5 86.8215C108.945 86.9105 109.36 87.1922 109.746 87.6668C110.161 88.1117 110.369 88.5862 110.369 89.0905C110.369 89.9209 109.538 92.3531 107.877 96.3868C106.246 100.421 105.43 102.497 105.43 102.615C105.43 102.793 105.771 102.882 106.453 102.882C107.492 102.882 108.337 103.134 108.989 103.639C109.672 104.143 110.013 104.751 110.013 105.463C110.013 105.759 109.924 106.086 109.746 106.442C109.449 107.035 109.049 107.45 108.544 107.687C108.04 107.895 107.076 108.043 105.653 108.132L103.028 108.266L101.248 112.67C100.091 115.577 99.513 117.104 99.513 117.253C99.513 117.371 100.67 117.431 102.983 117.431C104.615 117.401 105.638 117.356 106.053 117.297C106.498 117.208 107.032 117.001 107.655 116.674C108.456 116.229 109.078 116.007 109.523 116.007C109.939 116.007 110.369 116.155 110.813 116.452C111.258 116.719 111.585 117.045 111.792 117.431C111.97 117.787 112.059 118.142 112.059 118.498C112.059 119.892 111.066 121.034 109.078 121.924C108.367 122.221 107.714 122.399 107.121 122.458C106.557 122.547 105.03 122.636 102.538 122.725C99.1274 122.844 96.9771 122.977 96.0873 123.125C95.1975 123.303 94.4412 123.392 93.8183 123.392C92.3946 123.392 91.49 122.784 91.1044 121.568C91.0451 121.42 91.0154 121.183 91.0154 120.856C91.0154 119.818 91.49 119.077 92.4391 118.632C93.0026 118.335 93.4624 117.772 93.8183 116.941C94.2632 115.962 94.9305 114.361 95.8203 112.136C96.7101 109.912 97.155 108.74 97.155 108.622C97.155 108.473 96.3394 108.399 94.7081 108.399C93.3734 108.399 92.3798 108.325 91.7273 108.177C91.1044 107.999 90.6447 107.687 90.3481 107.242C90.1108 106.916 89.9922 106.501 89.9922 105.997C89.9922 104.899 90.4815 104.069 91.4603 103.505C91.7569 103.327 93.1806 103.194 95.7314 103.105L99.5575 102.971L101.782 97.4546C103.265 93.7174 104.021 91.8192 104.051 91.7599C104.051 91.6709 102.271 91.5967 98.7122 91.5374L93.4179 91.4484L92.7505 90.6921C92.3353 90.2472 92.1277 89.6837 92.1277 89.0015C92.1277 88.4379 92.2908 87.9337 92.6171 87.4888C92.9433 87.0143 93.4031 86.688 93.9963 86.51ZM122.088 93.1835C122.385 92.8869 122.637 92.6942 122.845 92.6052C123.052 92.5162 123.408 92.4717 123.912 92.4717C124.683 92.4717 125.306 92.709 125.781 93.1835C126.196 93.5988 126.433 93.9695 126.493 94.2958C126.552 94.5924 126.597 95.6008 126.626 97.3211V99.9905L128.361 99.9015H128.895C131.149 99.9015 132.276 100.777 132.276 102.526C132.276 104.276 130.971 105.151 128.361 105.151C127.62 105.151 127.13 105.211 126.893 105.329C126.686 105.418 126.582 105.656 126.582 106.041C126.582 106.308 126.597 106.531 126.626 106.709C126.745 107.45 126.908 108.177 127.116 108.889C127.353 109.66 127.664 110.045 128.05 110.045C128.317 110.045 128.643 109.763 129.029 109.2C129.681 108.192 130.482 107.687 131.431 107.687C131.817 107.687 132.247 107.806 132.721 108.043C133.492 108.429 133.878 109.17 133.878 110.268C133.878 111.246 133.448 112.21 132.588 113.16C131.757 114.109 130.764 114.746 129.607 115.073C129.221 115.191 128.688 115.251 128.005 115.251C126.789 115.251 125.855 115.087 125.203 114.761C124.728 114.524 124.253 114.153 123.779 113.649C123.304 113.145 122.948 112.655 122.711 112.181C122.503 111.795 122.251 110.994 121.955 109.778C121.658 108.562 121.451 107.554 121.332 106.753C121.154 106.278 121.006 106.026 120.887 105.997C120.679 105.997 120.487 106.011 120.309 106.041C120.19 106.071 120.012 106.086 119.775 106.086C119.004 106.086 118.351 105.834 117.817 105.329C117.313 104.825 117.061 104.202 117.061 103.461C117.061 101.8 118.084 100.836 120.131 100.569L121.332 100.435V97.677C121.362 95.7491 121.391 94.6221 121.421 94.2958C121.48 93.9399 121.703 93.5691 122.088 93.1835ZM149.019 101.503C148.545 101.029 148.07 100.791 147.596 100.791L146.216 101.459C145.771 101.904 145.549 102.245 145.549 102.482C145.549 102.868 146.231 103.06 147.596 103.06H148.307C149.197 103.031 149.642 102.838 149.642 102.482C149.642 102.245 149.434 101.918 149.019 101.503ZM145.505 95.8085C146.098 95.6008 146.75 95.497 147.462 95.497C149.449 95.497 151.155 96.2089 152.578 97.6325C154.061 99.1155 154.847 100.865 154.936 102.882C154.936 103.001 154.936 103.164 154.936 103.372C154.966 103.579 154.981 103.713 154.981 103.772C154.981 104.336 154.729 104.988 154.225 105.73C153.75 106.501 153.053 107.124 152.134 107.598C151.303 108.014 150.369 108.221 149.331 108.221H147.951C147.566 108.221 147.077 108.221 146.483 108.221C145.92 108.192 145.475 108.177 145.149 108.177C144.822 108.147 144.6 108.132 144.481 108.132L143.814 108.043V109.6C143.814 110.49 143.933 111.172 144.17 111.647C144.437 112.092 144.941 112.522 145.683 112.937C146.216 113.263 146.75 113.426 147.284 113.426C147.937 113.426 148.663 113.174 149.464 112.67C150.354 112.107 151.036 111.825 151.511 111.825C151.985 111.825 152.489 112.092 153.023 112.626C153.557 113.16 153.824 113.738 153.824 114.361C153.824 115.043 153.513 115.71 152.89 116.363C151.644 117.727 150.057 118.498 148.129 118.676C147.981 118.706 147.744 118.721 147.418 118.721C145.697 118.721 144.007 118.172 142.346 117.075C140.714 115.977 139.617 114.643 139.053 113.071C138.727 112.27 138.564 111.143 138.564 109.689C138.564 106.219 139.32 103.001 140.833 100.035C141.842 97.9588 143.399 96.55 145.505 95.8085ZM161.684 95.8085C161.951 95.7195 162.232 95.675 162.529 95.675C163.211 95.675 163.789 95.8826 164.264 96.2978C164.531 96.5648 164.887 96.6538 165.332 96.5648C167.438 96.2089 168.713 96.0309 169.158 96.0309C169.544 96.0309 170.033 96.0754 170.626 96.1644C174.512 96.6686 176.454 97.855 176.454 99.7236C176.454 101.029 175.861 101.844 174.675 102.171C174.408 102.26 174.156 102.304 173.918 102.304C173.681 102.304 173.177 102.185 172.406 101.948C171.16 101.503 170.048 101.281 169.069 101.281C168.387 101.281 167.764 101.399 167.2 101.637C166.014 102.141 165.421 103.253 165.421 104.973C165.421 105.982 165.569 107.213 165.866 108.666C166.162 110.446 166.311 111.706 166.311 112.448C166.311 113.338 166.162 114.005 165.866 114.45C165.332 115.102 164.65 115.429 163.819 115.429C162.9 115.429 162.188 115.073 161.684 114.361C161.179 113.679 160.749 112.388 160.393 110.49C160.037 108.562 159.8 106.367 159.682 103.906C159.652 103.342 159.637 102.571 159.637 101.592C159.637 99.6939 159.785 98.3147 160.082 97.4546C160.408 96.5944 160.942 96.0457 161.684 95.8085ZM185.279 86.51C185.724 86.3914 187.845 86.3321 191.641 86.3321C195.408 86.3321 197.573 86.3914 198.137 86.51C198.315 86.5694 198.596 86.6287 198.982 86.688C199.397 86.7473 199.664 86.7918 199.783 86.8215C200.228 86.9105 200.643 87.1922 201.028 87.6668C201.444 88.1117 201.651 88.5862 201.651 89.0905C201.651 89.9209 200.821 92.3531 199.16 96.3868C197.529 100.421 196.713 102.497 196.713 102.615C196.713 102.793 197.054 102.882 197.736 102.882C198.774 102.882 199.62 103.134 200.272 103.639C200.954 104.143 201.295 104.751 201.295 105.463C201.295 105.759 201.206 106.086 201.028 106.442C200.732 107.035 200.331 107.45 199.827 107.687C199.323 107.895 198.359 108.043 196.935 108.132L194.31 108.266L192.531 112.67C191.374 115.577 190.796 117.104 190.796 117.253C190.796 117.371 191.952 117.431 194.266 117.431C195.897 117.401 196.921 117.356 197.336 117.297C197.781 117.208 198.315 117.001 198.937 116.674C199.738 116.229 200.361 116.007 200.806 116.007C201.221 116.007 201.651 116.155 202.096 116.452C202.541 116.719 202.867 117.045 203.075 117.431C203.253 117.787 203.342 118.142 203.342 118.498C203.342 119.892 202.348 121.034 200.361 121.924C199.649 122.221 198.997 122.399 198.404 122.458C197.84 122.547 196.312 122.636 193.821 122.725C190.41 122.844 188.26 122.977 187.37 123.125C186.48 123.303 185.724 123.392 185.101 123.392C183.677 123.392 182.773 122.784 182.387 121.568C182.328 121.42 182.298 121.183 182.298 120.856C182.298 119.818 182.773 119.077 183.722 118.632C184.285 118.335 184.745 117.772 185.101 116.941C185.546 115.962 186.213 114.361 187.103 112.136C187.993 109.912 188.438 108.74 188.438 108.622C188.438 108.473 187.622 108.399 185.991 108.399C184.656 108.399 183.662 108.325 183.01 108.177C182.387 107.999 181.927 107.687 181.631 107.242C181.394 106.916 181.275 106.501 181.275 105.997C181.275 104.899 181.764 104.069 182.743 103.505C183.04 103.327 184.463 103.194 187.014 103.105L190.84 102.971L193.065 97.4546C194.548 93.7174 195.304 91.8192 195.334 91.7599C195.334 91.6709 193.554 91.5967 189.995 91.5374L184.701 91.4484L184.033 90.6921C183.618 90.2472 183.41 89.6837 183.41 89.0015C183.41 88.4379 183.574 87.9337 183.9 87.4888C184.226 87.0143 184.686 86.688 185.279 86.51Z" fill="white"/>
</g>
<defs>
<clipPath id="clip0_7_77">
<rect width="206" height="132" fill="white"/>
</clipPath>
</defs>
</svg>
